PathFileType        4      (X/Y/Z)      C:\Users\pc\Desktop\IMUTRC\Sujet_08\Sujet_08_Tpose.trc         
DataRate	CameraRate	NumFrames	NumMarkers	Units	OrigDataRate	OrigDataStartFrame	OrigNumFrames
60.0	60.0	4	64	mm	60.0	1	163
Frame#	Time	pHipOrigin			pRightASI			pLeftASI			pRightCSI			pLeftCSI			pRightIschialTub			pLeftIschialTub			pSacrum			pL5SpinalProcess			pL3SpinalProcess			pT12SpinalProcess			pIJ			pT4SpinalProcess			pT8SpinalProcess			pPX			pC7SpinalProcess			pTopOfHead			pRightAuricularis			pLeftAuricularis			pBackOfHead			pRightAcromion			pLeftAcromion			pRightArmLatEpicondyle			pRightArmMedEpicondyle			pLeftArmLatEpicondyle			pLeftArmMedEpicondyle			pRightUlnarStyloid			pRightRadialStyloid			pRightOlecranon			pLeftUlnarStyloid			pLeftRadialStyloid			pLeftOlecranon			pRightTopOfHand			pRightPinky			pRightBallHand			pLeftTopOfHand			pLeftPinky			pLeftBallHand			pRightGreaterTrochanter			pRightKneeLatEpicondyle			pRightKneeMedEpicondyle			pRightPatella			pLeftGreaterTrochanter			pLeftKneeLatEpicondyle			pLeftKneeMedEpicondyle			pLeftPatella			pRightTibialTub			pRightLatMalleolus			pRightMedMalleolus			pLeftTibialTub			pLeftLatMalleolus			pLeftMedMalleolus			pRightHeelFoot			pRightFirstMetatarsal			pRightFifthMetatarsal			pRightPivotFoot			pRightHeelCenter			pRightToe			pLeftHeelFoot			pLeftFirstMetatarsal			pLeftFifthMetatarsal			pLeftPivotFoot			pLeftHeelCenter			pLeftToe			
		X1	Y1	Z1	X2	Y2	Z2	X3	Y3	Z3	X4	Y4	Z4	X5	Y5	Z5	X6	Y6	Z6	X7	Y7	Z7	X8	Y8	Z8	X9	Y9	Z9	X10	Y10	Z10	X11	Y11	Z11	X12	Y12	Z12	X13	Y13	Z13	X14	Y14	Z14	X15	Y15	Z15	X16	Y16	Z16	X17	Y17	Z17	X18	Y18	Z18	X19	Y19	Z19	X20	Y20	Z20	X21	Y21	Z21	X22	Y22	Z22	X23	Y23	Z23	X24	Y24	Z24	X25	Y25	Z25	X26	Y26	Z26	X27	Y27	Z27	X28	Y28	Z28	X29	Y29	Z29	X30	Y30	Z30	X31	Y31	Z31	X32	Y32	Z32	X33	Y33	Z33	X34	Y34	Z34	X35	Y35	Z35	X36	Y36	Z36	X37	Y37	Z37	X38	Y38	Z38	X39	Y39	Z39	X40	Y40	Z40	X41	Y41	Z41	X42	Y42	Z42	X43	Y43	Z43	X44	Y44	Z44	X45	Y45	Z45	X46	Y46	Z46	X47	Y47	Z47	X48	Y48	Z48	X49	Y49	Z49	X50	Y50	Z50	X51	Y51	Z51	X52	Y52	Z52	X53	Y53	Z53	X54	Y54	Z54	X55	Y55	Z55	X56	Y56	Z56	X57	Y57	Z57	X58	Y58	Z58	X59	Y59	Z59	X60	Y60	Z60	X61	Y61	Z61	X62	Y62	Z62	X63	Y63	Z63	X64	Y64	Z64	
1	0.0	2465.3837069233236	911.9523700000001	-984.4821814516363	2532.739722046571	1011.00035	-854.9058378123046	2530.6089280261203	1005.3450800000002	-1119.2790051449365	2489.704071847949	1076.2783	-879.3389223563166	2487.932228060953	1071.59251	-1096.9833006796566	2410.797487567876	858.1465300000001	-928.5204847550478	2409.987480452849	855.8844300000001	-1037.3150485179021	2400.363860318782	933.2808100000001	-984.4185300575757	2435.8697290906844	1020.5335200000001	-985.5952527957055	2435.179770347719	1130.89203	-986.5341766189231	2418.6141638173585	1230.26317	-986.3734018327137	2518.1897873346875	1464.87601	-995.869242042034	2383.770900794881	1413.65544	-985.1274601692162	2397.6861031213944	1328.98799	-985.5651038164932	2542.0858786124413	1350.15485	-996.8009141834274	2375.7219924758274	1466.81496	-982.3827102732927	2399.7715913066036	1717.5857	-988.9328231770479	2433.5609697942473	1624.67772	-927.2851664946108	2390.9422766209836	1622.09246	-1054.9077623251205	2362.6742560032053	1616.43719	-974.4074733332704	2414.150164908669	1439.83125	-828.6015632825182	2386.4407933177163	1435.46861	-1144.5839991078296	2436.3800722441088	1417.85649	-562.7591797549602	2495.1071432530866	1400.72911	-570.0997277212128	2397.0250422461822	1411.55491	-1412.2389089166768	2457.736580487999	1402.18332	-1408.0244041697138	2469.248439250583	1331.41168	-327.0905805813059	2464.219481089367	1381.17804	-313.2736315899825	2465.8292930019697	1385.54067	-576.1133798603863	2353.843631598587	1348.70064	-1644.6112373021779	2341.793990207054	1398.62858	-1650.7164359052663	2431.6171114050526	1382.47067	-1404.2910499184845	2493.707279105395	1314.60745	-129.732325540826	2487.6874498623883	1291.66322	-219.9611950509192	2485.084472281272	1329.14957	-287.45280811937613	2347.1226564274393	1324.78694	-1838.264624448211	2355.2681677681276	1305.72061	-1747.262080568827	2361.7094375928828	1345.9538	-1681.8124083374705	2459.5520797966815	887.23077	-823.4252435693871	2417.62729026666	492.49306000000007	-823.0372683230363	2423.0888517547637	485.86832000000004	-899.4581152772214	2463.48357839243	487.48411000000004	-860.6827866343912	2457.176206811004	885.2918200000001	-1146.1782797328838	2428.424196477932	489.58463000000006	-1156.4712058249595	2436.2152349871185	481.02094000000005	-1080.5572308403457	2475.4873691381717	485.0604200000001	-1120.4272353718463	2472.8973250982012	453.0677600000001	-857.2564630405689	2392.7308811011862	84.02113000000004	-800.4602297258974	2396.7243313891145	78.85059000000005	-860.5644258330481	2483.6886671983675	448.22039000000007	-1125.0079575854515	2390.967350756877	82.89007000000007	-1186.7834218751614	2396.6924360539315	76.26533000000008	-1126.9248433893504	2357.6096124341966	2.1005300000000515	-839.5515033303884	2515.8682088251194	1.938950000000052	-847.2906533662534	2502.262842538611	4.7394190526463286E-14	-774.0058694386164	2530.0201084919945	0.8079000000000494	-807.7500164276343	2394.1760849210814	4.524210000000051	-832.7764472960503	2608.3433534377937	-0.6463199999999514	-793.3424887290869	2356.6532872425187	-0.1615799999999293	-1154.394065605365	2514.796343766059	-0.8078999999999299	-1144.8084408394634	2501.979687714166	2.7468400000000748	-1218.2528661900676	2529.468472585784	0.9694700000000726	-1184.1749268370295	2393.2649790968676	2.7468400000000712	-1160.4987255523408	2607.8966495472678	0.6463200000000734	-1197.9288218756574	
2	0.017	2465.590806071749	911.9523700000001	-984.5787533705444	2532.739722046571	1011.00035	-854.9058378123046	2530.760763559787	1005.5066600000001	-1119.223741530178	2489.5522457112083	1076.2783	-879.3941825508737	2487.932228060953	1071.59251	-1096.9833006796566	2411.004586716301	858.1465300000001	-928.617056673956	2410.194579601274	855.8844300000001	-1037.4116204368106	2400.4191239335405	933.2808100000001	-984.5703655912421	2435.924992705443	1020.5335200000001	-985.7470883293721	2435.083198428811	1130.89203	-986.7412757673483	2418.669427432117	1230.26317	-986.5252373663801	2518.396886483112	1464.87601	-995.9658139609418	2383.8261644096397	1413.65544	-985.2792957028828	2397.6861031213944	1328.98799	-985.5651038164932	2542.1411422272	1349.99328	-996.952749717094	2375.98435181881	1466.97653	-982.631108328941	2400.4894572505855	1717.74728	-989.0154303884206	2433.9198950794134	1624.67772	-927.3264782189615	2391.563574066259	1622.25404	-1055.1974780818446	2362.936618766389	1616.59877	-974.6558807858453	2414.2054285234276	1439.83125	-828.7533988161848	2386.496053512273	1435.63019	-1144.7358252445702	2436.4353358588673	1418.01807	-562.911015288627	2495.3142424015123	1400.72911	-570.1962996401211	2396.8732067125156	1411.55491	-1412.2941725314354	2457.7918441027578	1402.18332	-1408.1762397033804	2469.3037028653416	1331.41168	-327.2424161149725	2464.481843852551	1381.17804	-313.52203904255686	2466.036382753469	1385.70225	-576.2099551994957	2353.6917960649203	1348.53906	-1644.6665009169365	2341.6421546733873	1398.62858	-1650.771699520025	2431.520539486144	1382.47067	-1404.4981490669095	2493.969632471653	1314.2843	-129.98073641360182	2487.7979770919055	1291.50165	-220.26486611825229	2485.139735896031	1329.14957	-287.60464365304273	2346.8189947570327	1324.62536	-1838.3751482575267	2355.1163416313875	1305.55903	-1747.317340763384	2361.405775922476	1345.79222	-1681.922932146786	2459.7591789451067	887.23077	-823.5218154882951	2417.6825538814187	492.65464000000003	-823.1891038567029	2423.1441119493206	485.86832000000004	-899.6099414139619	2463.48357839243	487.48411000000004	-860.6827866343912	2457.383305959429	885.2918200000001	-1146.2748516517918	2428.6312862294308	489.58463000000006	-1156.567781164069	2436.367070520785	481.02094000000005	-1080.5019672255871	2475.639195274912	485.0604200000001	-1120.3719751772892	2473.049160631868	453.0677600000001	-857.2011994258104	2392.7308811011862	84.02113000000004	-800.4602297258974	2396.876166922781	78.85059000000005	-860.5091622182895	2483.6886671983675	448.22039000000007	-1125.0079575854515	2390.967350756877	82.89007000000007	-1186.7834218751614	2396.8442715875985	76.26533000000008	-1126.8695797745918	2357.761447967863	2.2621100000000514	-839.4962397156298	2515.8682088251194	1.938950000000052	-847.2906533662534	2502.262842538611	4.7394190526463286E-14	-774.0058694386164	2530.0201084919945	0.8079000000000494	-807.7500164276343	2394.1760849210814	4.524210000000051	-832.7764472960503	2608.4951889714603	-0.6463199999999514	-793.2872251143283	2356.8051227761853	-0.1615799999999293	-1154.3388019906065	2514.796343766059	-0.8078999999999299	-1144.8084408394634	2502.1867868625914	2.7468400000000748	-1218.3494381089758	2529.468472585784	1.1310500000000727	-1184.1749268370295	2393.416814630534	2.7468400000000712	-1160.4434619375825	2608.0484850809344	0.6463200000000734	-1197.8735582608988	
3	0.033	2465.6460696865074	911.9523700000001	-984.7305889042112	2532.643150127663	1011.16193	-855.1129369607298	2530.8160271745455	1005.5066600000001	-1119.3755770638445	2489.4004101775417	1076.2783	-879.4494461656323	2487.9874916757117	1071.75409	-1097.1351362133232	2411.2116858647264	858.1465300000001	-928.713628592864	2410.456942364458	855.7228500000001	-1037.6600278893852	2400.474387548299	933.2808100000001	-984.7222011249089	2435.9802563202015	1020.5335200000001	-985.8989238630385	2435.1384620435697	1130.89203	-986.8931113010149	2418.669427432117	1230.26317	-986.5252373663801	2518.603985631538	1464.71443	-996.06238587985	2384.033260137863	1413.65544	-985.3758582248645	2397.741366736153	1328.98799	-985.71693935016	2542.292977760866	1349.99328	-996.8974861023355	2376.191450967235	1466.97653	-982.7276802478492	2401.110754695861	1717.74728	-989.3051461451444	2434.182254422395	1624.67772	-927.5748762746098	2392.2814340335162	1622.25404	-1055.280098110345	2363.4060806779976	1616.76035	-975.0008601573277	2414.412527671853	1439.99283	-828.8499707350928	2386.7031526606984	1435.63019	-1144.8323971634782	2436.642431587091	1418.01807	-563.0075778106087	2495.3695060162704	1400.89069	-570.3481351737877	2396.7766347936076	1411.55491	-1412.5012716798606	2457.6952721838497	1402.18332	-1408.3833388518055	2469.510802013767	1331.41168	-327.3389880338805	2464.5371040471077	1381.17804	-313.67386517929737	2466.0916463682274	1385.70225	-576.361790733162	2353.5399699281797	1348.37748	-1644.7217611114936	2341.4903191397207	1398.467	-1650.8269631347835	2431.5758031009027	1382.47067	-1404.649984600576	2494.176731620078	1314.12272	-130.07730833251006	2487.908500901221	1291.50165	-220.5685277886595	2485.4020892622884	1328.98799	-287.8530545258188	2346.4600600749404	1324.3022	-1838.3338399533773	2354.812670564054	1305.23587	-1747.4278679929012	2361.2539403888095	1345.63064	-1681.9781957615446	2459.8144425598653	887.23077	-823.6736510219617	2417.8343894150853	492.65464000000003	-823.1338402419443	2423.2959474829872	485.86832000000004	-899.5546777992033	2463.690677540855	487.48411000000004	-860.7793585532992	2457.590405107854	885.2918200000001	-1146.3714235706998	2428.6312862294308	489.58463000000006	-1156.567781164069	2436.367070520785	481.02094000000005	-1080.5019672255871	2475.639195274912	485.0604200000001	-1120.3719751772892	2473.1044242466264	453.0677600000001	-857.353034959477	2392.882716634853	84.02113000000004	-800.404966111139	2396.876166922781	78.85059000000005	-860.5091622182895	2483.840502732034	448.22039000000007	-1124.952693970693	2391.119186290544	82.89007000000007	-1186.7281582604028	2396.8442715875985	76.26533000000008	-1126.8695797745918	2357.761447967863	2.2621100000000514	-839.4962397156298	2515.8682088251194	2.100530000000052	-847.2906533662534	2502.359414457519	4.738150936100204E-14	-773.7987702901914	2530.171944025661	0.8079000000000494	-807.6947528128758	2394.327920454748	4.524210000000051	-832.7211836812918	2608.4951889714603	-0.6463199999999514	-793.2872251143283	2356.956958309852	-0.16157999999992934	-1154.283538375848	2514.9481792997262	-0.8078999999999299	-1144.7531772247048	2502.1867868625914	2.7468400000000748	-1218.3494381089758	2529.620308119451	1.1310500000000727	-1184.1196632222711	2393.416814630534	2.908420000000071	-1160.4434619375825	2608.200320614601	0.8079000000000733	-1197.8182946461402	
4	0.05	2465.8531594380065	911.9523700000001	-984.8271642433207	2532.643150127663	1011.16193	-855.1129369607298	2530.871290789304	1005.6682400000001	-1119.527412597511	2489.4556737923003	1076.2783	-879.6012816992989	2487.9874916757117	1071.75409	-1097.1351362133232	2411.4187850131516	857.9849500000001	-928.8102005117721	2410.664041512883	855.7228500000001	-1037.7565998082928	2400.6814866967243	933.1192300000001	-984.8187730438169	2435.9802563202015	1020.5335200000001	-985.8989238630385	2435.1384620435697	1130.89203	-986.8931113010149	2418.7246910468757	1230.26317	-986.6770729000467	2518.8110847799626	1464.71443	-996.1589577987581	2384.2403592862884	1413.81701	-985.4724301437725	2397.9484658845777	1329.14957	-985.8135112690682	2542.3482413756246	1349.8317	-997.0493216360021	2376.453813730419	1467.13811	-982.9760877004239	2401.6767791294515	1717.74728	-989.4430297884036	2434.541189104487	1624.67772	-927.6161845787593	2392.90272805859	1622.25404	-1055.569804470143	2363.820278974848	1616.76035	-975.1940039951438	2414.4677912866114	1439.99283	-829.0018062687594	2386.758416275457	1435.79177	-1144.9842326971448	2436.6976952018495	1418.17965	-563.1594133442753	2495.5766051646956	1400.89069	-570.4447070926955	2396.624799259941	1411.55491	-1412.5565352946192	2457.543436650183	1402.18332	-1408.4386024665641	2469.5660656285254	1331.41168	-327.4908235675471	2464.744193798607	1381.17804	-313.7704405184068	2466.2987455166526	1385.86383	-576.4583626520702	2353.2362988608465	1348.21591	-1644.8322883410108	2341.1866480723875	1398.30542	-1650.9374903643006	2431.423967567236	1382.47067	-1404.7052482153344	2494.287258849595	1313.96114	-130.38097939984314	2488.1156000496467	1291.34007	-220.6650997075673	2485.457352877047	1328.98799	-288.0048900594854	2346.1563890076077	1324.14062	-1838.4443671828944	2354.4537358819625	1305.07429	-1747.3865596887517	2360.8950057067173	1345.46906	-1681.9368874573952	2459.8144425598653	887.23077	-823.6736510219617	2417.889653029844	492.65464000000003	-823.2856757756109	2423.351211097746	486.0298900000001	-899.7065133328697	2463.690677540855	487.48411000000004	-860.7793585532992	2457.7975042562794	885.2918200000001	-1146.4679954896078	2428.7831217630974	489.58463000000006	-1156.5125175493104	2436.5189060544517	481.18252000000007	-1080.4467036108285	2475.7910308085784	485.0604200000001	-1120.3167115625306	2473.1044242466264	453.0677600000001	-857.353034959477	2392.882716634853	84.02113000000004	-800.404966111139	2396.876166922781	78.85059000000005	-860.5091622182895	2484.0476018804598	448.22039000000007	-1125.0492658896012	2391.119186290544	82.89007000000007	-1186.7281582604028	2396.996097724339	76.26533000000008	-1126.8143195800349	2357.761447967863	2.2621100000000514	-839.4962397156298	2515.8682088251194	2.100530000000052	-847.2906533662534	2502.359414457519	4.738150936100204E-14	-773.7987702901914	2530.171944025661	0.8079000000000494	-807.6947528128758	2394.327920454748	4.6857900000000505	-832.7211836812918	2608.4951889714603	-0.6463199999999514	-793.2872251143283	2356.956958309852	7.067948202902318E-14	-1154.283538375848	2514.9481792997262	-0.64631999999993	-1144.7531772247048	2502.338622396258	2.9084200000000746	-1218.294174494217	2529.620308119451	1.1310500000000727	-1184.1196632222711	2393.568650164201	2.908420000000071	-1160.3881983228239	2608.200320614601	0.8079000000000733	-1197.8182946461402	
